<svg width="545" height="473" viewBox="0 0 545 473" fill="none" xmlns="http://www.w3.org/2000/svg">
<path d="M272.5 0L453.066 99.25V297.75L272.5 397L91.9337 297.75V99.25L272.5 0Z" fill="white"/>
<path opacity="0.5" d="M545 304.168L486.158 270.252L302.136 164.184L272.902 147.33L0.804688 304.168L272.902 461L545 304.168Z" fill="#0F204F"/>
<path d="M0.503906 229.883L272.092 73.3389L543.687 229.883L272.092 386.427L0.503906 229.883Z" fill="white"/>
<path d="M272.091 73.6259L301.076 90.3333L485.099 196.401L543.19 229.882L272.091 386.138L1.00573 229.882L272.091 73.6259ZM272.091 73.0503L0 229.882L272.091 386.714L544.189 229.882L485.347 195.965L301.331 89.9049L272.091 73.0503Z" fill="#001D51"/>
<path d="M0.248047 250.666V230.317L271.843 386.861V407.21L0.248047 250.666Z" fill="#00143F"/>
<path d="M0.502866 230.752L271.588 387.009V406.775L0.502866 250.519V230.752ZM0 229.882V250.806L272.091 407.645V386.721L0 229.882Z" fill="#001D51"/>
<path d="M272.346 386.861L543.941 230.317V250.659L272.346 407.21V386.861Z" fill="#0F204F"/>
<path d="M543.687 230.752V250.519L272.595 406.775V387.009L543.687 230.752ZM544.19 229.882L272.092 386.714V407.638L544.19 250.8V229.882Z" fill="#001D51"/>
<path d="M227.282 79.1348L227.121 134.712L219.236 130.167L219.391 74.5898L227.282 79.1348Z" fill="#00143F" stroke="#001A47" stroke-miterlimit="10"/>
<path d="M271.501 53.4781L271.34 109.062L227.121 134.712L227.282 79.1348L271.501 53.4781Z" fill="#0F204F" stroke="#001A47" stroke-miterlimit="10"/>
<path d="M266.171 94.3628L266.01 149.94L265.93 135.656L266.091 80.0786L266.171 94.3628Z" fill="#727373" stroke="#001A47" stroke-miterlimit="10"/>
<path d="M397.278 125.977L397.117 181.554L271.34 109.062L271.501 53.4781L397.278 125.977Z" fill="#00143F" stroke="#001A47" stroke-miterlimit="10"/>
<path d="M303.819 95.4137L303.658 150.991L277.053 135.656L277.207 80.0786L303.819 95.4137Z" fill="#00143F" stroke="#001A47" stroke-miterlimit="10"/>
<path d="M311.655 90.8688L311.494 146.446L303.656 150.991L303.817 95.4138L311.655 90.8688Z" fill="#0F204F" stroke="#001A47" stroke-miterlimit="10"/>
<path d="M204.894 92.1205L204.733 147.704L171.148 167.19L171.303 111.612L204.894 92.1205Z" fill="#0F204F" stroke="#001A47" stroke-miterlimit="10"/>
<path d="M175.868 123.293L175.707 178.877L163.316 171.735L163.477 116.151L175.868 123.293Z" fill="#00143F" stroke="#001A47" stroke-miterlimit="10"/>
<path d="M163.479 116.151L163.318 171.735L63.127 229.862L63.2812 174.278L163.479 116.151Z" fill="#0F204F" stroke="#001A47" stroke-miterlimit="10"/>
<path d="M266.091 80.0786L265.93 135.656L109.096 226.642L109.257 171.065L266.091 80.0786Z" fill="#0F204F" stroke="#001A47" stroke-miterlimit="10"/>
<path d="M251.54 111.974L251.386 167.551L243.494 163.006L243.655 107.422L251.54 111.974Z" fill="#00143F" stroke="#001A47" stroke-miterlimit="10"/>
<path d="M271.763 100.24L271.602 155.824L251.387 167.551L251.541 111.974L271.763 100.24Z" fill="#0F204F" stroke="#001A47" stroke-miterlimit="10"/>
<path d="M352.186 123.293L352.032 178.87L326.191 163.983L326.346 108.399L352.186 123.293Z" fill="#173372" stroke="#001A47" stroke-miterlimit="10"/>
<path d="M405.116 121.432L397.278 125.977L271.501 53.4781L227.282 79.1348L219.391 74.5899L271.447 44.3882L405.116 121.432Z" fill="white" stroke="#001A47" stroke-miterlimit="10"/>
<path d="M405.116 121.432L404.955 177.009L397.117 181.554L397.278 125.977L405.116 121.432Z" fill="#0F204F" stroke="#001A47" stroke-miterlimit="10"/>
<path d="M360.079 127.844L359.918 183.422L347.607 190.564L347.768 134.987L360.079 127.844Z" fill="#1C4284" stroke="#001A47" stroke-miterlimit="10"/>
<path d="M229.153 124.959L228.999 180.537L211.707 190.57L211.868 134.993L229.153 124.959Z" fill="#1C4284" stroke="#001A47" stroke-miterlimit="10"/>
<path d="M266.432 141.125L266.278 196.702L266.197 182.418L266.351 126.834L266.432 141.125Z" fill="#727373" stroke="#001A47" stroke-miterlimit="10"/>
<path d="M345.241 142.597L345.087 198.174L271.602 155.824L271.762 100.24L345.241 142.597Z" fill="#00143F" stroke="#001A47" stroke-miterlimit="10"/>
<path d="M353.078 138.046L352.924 193.623L345.086 198.174L345.24 142.597L353.078 138.046Z" fill="#0F204F" stroke="#001A47" stroke-miterlimit="10"/>
<path d="M311.892 146.674L311.731 202.251L277.314 182.418L277.469 126.834L311.892 146.674Z" fill="#00143F" stroke="#001A47" stroke-miterlimit="10"/>
<path d="M216.432 146.674L216.271 202.251L203.881 195.109L204.035 139.531L216.432 146.674Z" fill="#00143F" stroke="#001A47" stroke-miterlimit="10"/>
<path d="M183.144 151.654L182.989 207.231L175.098 202.686L175.252 147.109L183.144 151.654Z" fill="#00143F" stroke="#001A47" stroke-miterlimit="10"/>
<path d="M204.037 139.531L203.883 195.109L182.99 207.231L183.144 151.654L204.037 139.531Z" fill="#0F204F" stroke="#001A47" stroke-miterlimit="10"/>
<path d="M319.775 151.219L319.621 206.802L307.311 213.945L307.465 158.361L319.775 151.219Z" fill="#0F204F" stroke="#001A47" stroke-miterlimit="10"/>
<path d="M475.497 171.065L475.343 226.642L419.652 194.546L419.807 138.963L475.497 171.065Z" fill="#00143F" stroke="#001A47" stroke-miterlimit="10"/>
<path d="M440.645 174.278L440.491 229.855L359.918 183.422L360.079 127.844L440.645 174.278Z" fill="#00143F" stroke="#001A47" stroke-miterlimit="10"/>
<path d="M394.636 171.065L394.482 226.642L367.615 211.16L367.776 155.583L394.636 171.065Z" fill="#173372" stroke="#001A47" stroke-miterlimit="10"/>
<path d="M266.351 126.834L266.196 182.418L189.955 226.643L190.116 171.065L266.351 126.834Z" fill="#0F204F" stroke="#001A47" stroke-miterlimit="10"/>
<path d="M359.783 174.278L359.622 229.862L319.621 206.802L319.775 151.219L359.783 174.278Z" fill="#00143F" stroke="#001A47" stroke-miterlimit="10"/>
<path d="M319.353 174.278L319.192 229.862L271.869 202.579L272.023 147.002L319.353 174.278Z" fill="#00143F" stroke="#001A47" stroke-miterlimit="10"/>
<path d="M272.023 147.002L271.869 202.579L224.848 229.862L225.009 174.278L272.023 147.002Z" fill="#0F204F" stroke="#001A47" stroke-miterlimit="10"/>
<path d="M160.749 164.646L160.588 220.23L143.986 229.862L144.141 174.278L160.749 164.646Z" fill="#1C4284" stroke="#001A47" stroke-miterlimit="10"/>
<path d="M475.537 177.491L475.376 233.075L450.662 233.068L450.823 177.491H475.537Z" fill="#1C4284" stroke="#001A47" stroke-miterlimit="10"/>
<path d="M394.676 177.491L394.515 233.075L369.801 233.068L369.962 177.491H394.676Z" fill="#1C4284" stroke="#001A47" stroke-miterlimit="10"/>
<path d="M214.858 177.498L214.697 233.075H189.996L190.15 177.498H214.858Z" fill="#0F204F" stroke="#001A47" stroke-miterlimit="10"/>
<path d="M133.996 177.498L133.836 233.075H109.135L109.289 177.498H133.996Z" fill="#1C4284" stroke="#001A47" stroke-miterlimit="10"/>
<path d="M229.562 185.972L229.401 241.549L214.697 233.075L214.858 177.498L229.562 185.972Z" fill="#00143F" stroke="#001A47" stroke-miterlimit="10"/>
<path d="M237.399 181.42L237.238 237.004L229.4 241.549L229.561 185.972L237.399 181.42Z" fill="#1C4284" stroke="#001A47" stroke-miterlimit="10"/>
<path d="M335.069 174.271L334.915 229.855L307.479 245.766L307.633 190.189L335.069 174.271Z" fill="#0F204F" stroke="#001A47" stroke-miterlimit="10"/>
<path d="M386.825 191.16L386.671 246.737L378.793 242.198L378.947 186.621L386.825 191.16Z" fill="#00143F" stroke="#001A47" stroke-miterlimit="10"/>
<path d="M415.93 174.271L415.776 229.855L386.67 246.737L386.824 191.16L415.93 174.271Z" fill="#0F204F" stroke="#001A47" stroke-miterlimit="10"/>
<path d="M161.051 193.087L160.89 248.671L133.836 233.075L133.997 177.498L161.051 193.087Z" fill="#00143F" stroke="#001A47" stroke-miterlimit="10"/>
<path d="M216.735 201.883L216.574 257.46L168.688 229.862L168.848 174.278L216.735 201.883Z" fill="#173372" stroke="#001A47" stroke-miterlimit="10"/>
<path d="M168.89 188.542L168.729 244.119L160.891 248.671L161.052 193.087L168.89 188.542Z" fill="#0F204F" stroke="#001A47" stroke-miterlimit="10"/>
<path d="M129.919 198.449L129.759 254.026L87.8262 229.862L87.9871 174.278L129.919 198.449Z" fill="#00143F" stroke="#001A47" stroke-miterlimit="10"/>
<path d="M137.759 193.904L137.598 249.481L129.76 254.026L129.921 198.449L137.759 193.904Z" fill="#0F204F" stroke="#001A47" stroke-miterlimit="10"/>
<path d="M312.213 201.883L312.052 257.46L299.648 250.311L299.809 194.734L312.213 201.883Z" fill="#173372" stroke="#001A47" stroke-miterlimit="10"/>
<path d="M369.962 177.491L369.801 233.068L314.15 265.358L314.305 209.774L369.962 177.491Z" fill="#0F204F" stroke="#001A47" stroke-miterlimit="10"/>
<path d="M314.304 209.774L314.15 265.358L306.271 260.813L306.426 205.236L314.304 209.774Z" fill="#00143F" stroke="#001A47" stroke-miterlimit="10"/>
<path d="M272.372 210.645L272.218 266.229L251.936 254.535L252.09 198.958L272.372 210.645Z" fill="#00143F" stroke="#001A47" stroke-miterlimit="10"/>
<path d="M299.809 194.734L299.648 250.311L272.219 266.229L272.373 210.645L299.809 194.734Z" fill="#0F204F" stroke="#001A47" stroke-miterlimit="10"/>
<path d="M364.43 204.152L364.269 259.736L348.043 269.147L348.197 213.57L364.43 204.152Z" fill="#0F204F" stroke="#001A47" stroke-miterlimit="10"/>
<path d="M224.621 206.428L224.466 262.005L212.156 269.147L212.31 213.57L224.621 206.428Z" fill="#0F204F" stroke="#001A47" stroke-miterlimit="10"/>
<path d="M352.771 225.257L352.617 280.841L340.213 273.692L340.374 218.108L352.771 225.257Z" fill="#00143F" stroke="#001A47" stroke-miterlimit="10"/>
<path d="M291.911 222.767L291.75 278.351L277.891 286.39L278.045 230.813L291.911 222.767Z" fill="#1C4284" stroke="#001A47" stroke-miterlimit="10"/>
<path d="M340.374 218.108L340.213 273.692L272.48 312.984L272.641 257.406L340.374 218.108Z" fill="#0F204F" stroke="#001A47" stroke-miterlimit="10"/>
<path d="M450.823 177.491L450.662 233.068L278.152 333.152L278.313 277.574L450.823 177.491Z" fill="#0F204F" stroke="#001A47" stroke-miterlimit="10"/>
<path d="M424.767 216.06L424.613 271.637L416.734 267.099L416.889 211.515L424.767 216.06Z" fill="#00143F" stroke="#001A47" stroke-miterlimit="10"/>
<path d="M496.791 174.271L496.637 229.855L424.613 271.637L424.768 216.06L496.791 174.271Z" fill="#0F204F" stroke="#001A47" stroke-miterlimit="10"/>
<path d="M176.433 225.264L176.278 280.841L152.295 267.018L152.449 211.435L176.433 225.264Z" fill="#00143F" stroke="#001A47" stroke-miterlimit="10"/>
<path d="M266.929 230.813L266.775 286.39L224.467 262.005L224.621 206.428L266.929 230.813Z" fill="#00143F" stroke="#001A47" stroke-miterlimit="10"/>
<path d="M267.022 245.103L266.861 300.681L266.773 286.39L266.928 230.812L267.022 245.103Z" fill="#727373" stroke="#001A47" stroke-miterlimit="10"/>
<path d="M272.641 257.406L272.48 312.984L183.426 261.657L183.58 206.08L272.641 257.406Z" fill="#00143F" stroke="#001A47" stroke-miterlimit="10"/>
<path d="M198.511 228.918L198.35 284.496L190.512 289.047L190.673 233.463L198.511 228.918Z" fill="#0F204F" stroke="#001A47" stroke-miterlimit="10"/>
<path d="M190.673 233.463L190.512 289.047L184.162 285.386L184.323 229.809L190.673 233.463Z" fill="#00143F" stroke="#001A47" stroke-miterlimit="10"/>
<path d="M184.325 229.809L184.164 285.386L171.854 292.528L172.014 236.951L184.325 229.809Z" fill="#0F204F" stroke="#001A47" stroke-miterlimit="10"/>
<path d="M267.189 277.574L267.035 333.152L213.047 302.033L213.201 246.456L267.189 277.574Z" fill="#173372" stroke="#001A47" stroke-miterlimit="10"/>
<path d="M217.231 263.016L217.07 318.593L209.232 323.138L209.393 267.561L217.231 263.016Z" fill="#0F204F" stroke="#001A47" stroke-miterlimit="10"/>
<path d="M209.393 267.561L209.232 323.138L47.3965 229.862L47.5507 174.278L209.393 267.561Z" fill="#00143F" stroke="#001A47" stroke-miterlimit="10"/>
<path d="M267.283 291.865L267.122 347.442L267.035 333.152L267.189 277.574L267.283 291.865Z" fill="#727373" stroke="#001A47" stroke-miterlimit="10"/>
<path d="M272.902 304.168L272.741 359.745L231.768 336.13L231.922 280.546L272.902 304.168Z" fill="#00143F" stroke="#001A47" stroke-miterlimit="10"/>
<path d="M424.768 216.06L416.889 211.522L475.537 177.498L450.823 177.491L278.313 277.574L278.407 291.865L394.509 224.507L402.387 229.045L272.902 304.168L231.922 280.546L239.76 276.001L267.283 291.865L267.189 277.574L213.202 246.456L221.04 241.911L272.728 271.704L352.771 225.264L340.367 218.115L272.634 257.413L183.58 206.08L191.418 201.535L204.418 209.025L216.728 201.883L168.842 174.285L216.427 146.68L204.036 139.538L183.144 151.66L175.252 147.115L221.261 120.421L229.153 124.966L211.867 134.993L224.258 142.135L271.843 114.531L369.922 171.065L394.636 171.072L367.776 155.59L375.614 151.045L415.931 174.285L386.825 191.173L378.947 186.635L394.676 177.511L369.962 177.504L314.311 209.795L306.433 205.256L312.213 201.903L299.809 194.754L272.372 210.671L252.09 198.984L259.928 194.439L272.332 201.588L319.353 174.312L272.024 147.035L225.002 174.312L237.393 181.454L229.555 185.999L214.851 177.525H190.15L272.46 224.969L284.025 218.262L291.904 222.8L278.038 230.846L278.125 245.137L356.539 199.647L364.417 204.185L348.184 213.603L360.589 220.752L440.631 174.312L360.066 127.871L347.755 135.013L353.072 138.079L345.234 142.624L271.762 100.24L251.54 111.974L243.649 107.429L266.164 94.3628L266.083 80.0786L109.256 171.065H133.957L152.858 160.101L160.749 164.646L144.148 174.278L168.889 188.542L161.051 193.087L133.997 177.491H109.296L137.758 193.897L129.92 198.442L87.9879 174.271L175.869 123.286L163.478 116.144L63.2804 174.278L164.122 232.399L176.432 225.257L152.449 211.434L160.287 206.89L198.505 228.918L190.667 233.463L184.317 229.802L172.007 236.944L217.225 263.009L209.387 267.554L47.5508 174.278L197.003 87.5755L204.894 92.1205L171.303 111.606L183.694 118.748L271.574 67.7623L311.65 90.8621L303.812 95.407L277.207 80.0786L277.287 94.3628L339.877 130.435L352.187 123.293L326.347 108.399L334.185 103.854L450.783 171.059L475.497 171.065L419.806 138.963L427.644 134.418L496.792 174.271L424.768 216.06ZM319.776 151.219L307.466 158.361L335.07 174.271L307.633 190.189L320.037 197.338L359.784 174.278L319.776 151.219ZM266.351 126.834L190.117 171.065H214.818L266.432 141.125L266.351 126.834ZM212.31 213.57L267.022 245.103L266.928 230.813L224.62 206.428L212.31 213.57ZM311.891 146.674L277.475 126.834L277.555 141.118L299.581 153.816L311.891 146.674Z" fill="white" stroke="#001A47" stroke-miterlimit="10"/>
<path d="M402.386 229.046L402.225 284.629L272.74 359.745L272.901 304.168L402.386 229.046Z" fill="#0F204F" stroke="#001A47" stroke-miterlimit="10"/>
<path d="M92 368.5L272 473L453 369V322L272 426L92 322V368.5Z" fill="white"/>
</svg>
