<svg width="130" height="114" viewBox="0 0 130 114" fill="none" xmlns="http://www.w3.org/2000/svg">
<path d="M5 0L9.33013 2.5V7.5L5 10L0.669873 7.5V2.5L5 0Z" fill="#DF0817" fill-opacity="0.5"/>
<path d="M5 26L9.33013 28.5V33.5L5 36L0.669873 33.5V28.5L5 26Z" fill="#DF0817" fill-opacity="0.5"/>
<path d="M5 52L9.33013 54.5V59.5L5 62L0.669873 59.5V54.5L5 52Z" fill="#DF0817" fill-opacity="0.5"/>
<path d="M5 78L9.33013 80.5V85.5L5 88L0.669873 85.5V80.5L5 78Z" fill="#DF0817" fill-opacity="0.5"/>
<path d="M5 104L9.33013 106.5V111.5L5 114L0.669873 111.5V106.5L5 104Z" fill="#DF0817" fill-opacity="0.5"/>
<path d="M35 0L39.3301 2.5V7.5L35 10L30.6699 7.5V2.5L35 0Z" fill="#DF0817" fill-opacity="0.5"/>
<path d="M35 26L39.3301 28.5V33.5L35 36L30.6699 33.5V28.5L35 26Z" fill="#DF0817" fill-opacity="0.5"/>
<path d="M35 52L39.3301 54.5V59.5L35 62L30.6699 59.5V54.5L35 52Z" fill="#DF0817" fill-opacity="0.5"/>
<path d="M35 78L39.3301 80.5V85.5L35 88L30.6699 85.5V80.5L35 78Z" fill="#DF0817" fill-opacity="0.5"/>
<path d="M35 104L39.3301 106.5V111.5L35 114L30.6699 111.5V106.5L35 104Z" fill="#DF0817" fill-opacity="0.5"/>
<path d="M65 0L69.3301 2.5V7.5L65 10L60.6699 7.5V2.5L65 0Z" fill="#DF0817" fill-opacity="0.5"/>
<path d="M65 26L69.3301 28.5V33.5L65 36L60.6699 33.5V28.5L65 26Z" fill="#DF0817" fill-opacity="0.5"/>
<path d="M65 52L69.3301 54.5V59.5L65 62L60.6699 59.5V54.5L65 52Z" fill="#DF0817" fill-opacity="0.5"/>
<path d="M65 78L69.3301 80.5V85.5L65 88L60.6699 85.5V80.5L65 78Z" fill="#DF0817" fill-opacity="0.5"/>
<path d="M65 104L69.3301 106.5V111.5L65 114L60.6699 111.5V106.5L65 104Z" fill="#DF0817" fill-opacity="0.5"/>
<path d="M95 0L99.3301 2.5V7.5L95 10L90.6699 7.5V2.5L95 0Z" fill="#DF0817" fill-opacity="0.5"/>
<path d="M95 26L99.3301 28.5V33.5L95 36L90.6699 33.5V28.5L95 26Z" fill="#DF0817" fill-opacity="0.5"/>
<path d="M95 52L99.3301 54.5V59.5L95 62L90.6699 59.5V54.5L95 52Z" fill="#DF0817" fill-opacity="0.5"/>
<path d="M95 78L99.3301 80.5V85.5L95 88L90.6699 85.5V80.5L95 78Z" fill="#DF0817" fill-opacity="0.5"/>
<path d="M95 104L99.3301 106.5V111.5L95 114L90.6699 111.5V106.5L95 104Z" fill="#DF0817" fill-opacity="0.5"/>
<path d="M125 0L129.33 2.5V7.5L125 10L120.67 7.5V2.5L125 0Z" fill="#DF0817" fill-opacity="0.5"/>
<path d="M125 26L129.33 28.5V33.5L125 36L120.67 33.5V28.5L125 26Z" fill="#DF0817" fill-opacity="0.5"/>
<path d="M125 52L129.33 54.5V59.5L125 62L120.67 59.5V54.5L125 52Z" fill="#DF0817" fill-opacity="0.5"/>
<path d="M125 78L129.33 80.5V85.5L125 88L120.67 85.5V80.5L125 78Z" fill="#DF0817" fill-opacity="0.5"/>
<path d="M125 104L129.33 106.5V111.5L125 114L120.67 111.5V106.5L125 104Z" fill="#DF0817" fill-opacity="0.5"/>
</svg>
