<svg width="14" height="14" viewBox="0 0 14 14" fill="none" xmlns="http://www.w3.org/2000/svg">
<path d="M13.8286 13.0058L10.4628 9.64004C11.2971 8.62285 11.7999 7.31992 11.7999 5.89996C11.7999 2.64277 9.15715 0 5.89996 0C2.64004 0 0 2.64277 0 5.89996C0 9.15715 2.64004 11.7999 5.89996 11.7999C7.31992 11.7999 8.61984 11.2998 9.63703 10.4655L13.0028 13.8283C13.2314 14.0569 13.6 14.0569 13.8286 13.8283C14.0571 13.603 14.0571 13.2314 13.8286 13.0058ZM5.89996 10.6258C3.29137 10.6258 1.17141 8.50582 1.17141 5.89996C1.17141 3.2941 3.29137 1.17141 5.89996 1.17141C8.50555 1.17141 10.6285 3.29438 10.6285 5.89996C10.6285 8.50555 8.50582 10.6258 5.89996 10.6258Z" fill="#0F204F"/>
</svg>
