<svg width="52" height="60" viewBox="0 0 52 60" fill="none" xmlns="http://www.w3.org/2000/svg">
<path d="M46.2958 41.4013V18.5987C46.2958 18.4941 46.2684 18.3914 46.2162 18.3009C46.1641 18.2104 46.089 18.1352 45.9987 18.0829L26.2976 6.6816C26.2072 6.62933 26.1048 6.60181 26.0005 6.60181C25.8961 6.60181 25.7937 6.62933 25.7033 6.6816L6.00219 18.0877C5.91186 18.1399 5.83685 18.2151 5.78469 18.3057C5.73254 18.3962 5.70508 18.4989 5.70508 18.6035V41.4013C5.70508 41.5058 5.73254 41.6085 5.78469 41.6991C5.83685 41.7896 5.91186 41.8648 6.00219 41.9171L25.7033 53.3184C25.7937 53.3707 25.8961 53.3982 26.0005 53.3982C26.1048 53.3982 26.2072 53.3707 26.2976 53.3184L45.9987 41.9123C46.0884 41.8605 46.1629 41.786 46.215 41.6964C46.2671 41.6067 46.295 41.505 46.2958 41.4013Z" fill="white"/>
<path d="M50.2113 44.1483L26.1188 58.0905C26.0826 58.1114 26.0416 58.1224 25.9999 58.1224C25.9582 58.1224 25.9172 58.1114 25.8811 58.0905L1.78855 44.1531C1.75246 44.1322 1.72247 44.1022 1.70161 44.066C1.68075 44.0298 1.66975 43.9888 1.66971 43.947V31.6774C1.66971 31.4562 1.58206 31.2441 1.42604 31.0877C1.27003 30.9314 1.05842 30.8435 0.837783 30.8435C0.617143 30.8435 0.40554 30.9314 0.249524 31.0877C0.0935085 31.2441 0.00585937 31.4562 0.00585938 31.6774V44.7023C0.00586202 44.8068 0.0333207 44.9095 0.0854753 45.0001C0.13763 45.0906 0.212643 45.1658 0.302975 45.2181L25.7028 59.9202C25.7931 59.9725 25.8956 60 25.9999 60C26.1042 60 26.2067 59.9725 26.297 59.9202L51.7028 45.2181C51.7931 45.1658 51.8681 45.0906 51.9203 45.0001C51.9725 44.9095 51.9999 44.8068 51.9999 44.7023V33.3475C51.9999 33.1263 51.9123 32.9142 51.7562 32.7578C51.6002 32.6015 51.3886 32.5136 51.168 32.5136C50.9473 32.5136 50.7357 32.6015 50.5797 32.7578C50.4237 32.9142 50.3361 33.1263 50.3361 33.3475V43.9375C50.3363 43.9807 50.3248 44.0231 50.3028 44.0602C50.2808 44.0974 50.2492 44.1278 50.2113 44.1483Z" fill="white"/>
<path d="M51.7029 14.7819L26.2971 0.0797971C26.2068 0.0275211 26.1043 0 26 0C25.8957 0 25.7932 0.0275211 25.7029 0.0797971L0.297116 14.7819C0.206783 14.8342 0.13177 14.9094 0.0796159 14.9999C0.0274613 15.0905 2.64981e-06 15.1932 0 15.2977V28.3322C0 28.5533 0.0876491 28.7654 0.243665 28.9218C0.399681 29.0782 0.611284 29.166 0.831924 29.166C1.05256 29.166 1.26417 29.0782 1.42018 28.9218C1.5762 28.7654 1.66385 28.5533 1.66385 28.3322V16.0625C1.66389 16.0207 1.67489 15.9797 1.69575 15.9435C1.71661 15.9073 1.7466 15.8773 1.78269 15.8564L25.8812 1.90952C25.9173 1.88861 25.9583 1.8776 26 1.8776C26.0417 1.8776 26.0827 1.88861 26.1188 1.90952L50.3302 15.9196V26.6525C50.3302 26.8737 50.4179 27.0858 50.5739 27.2422C50.7299 27.3985 50.9415 27.4864 51.1621 27.4864C51.3828 27.4864 51.5944 27.3985 51.7504 27.2422C51.9064 27.0858 51.9941 26.8737 51.9941 26.6525V15.2977C51.9947 15.1938 51.9681 15.0915 51.917 15.001C51.8659 14.9105 51.7921 14.835 51.7029 14.7819Z" fill="white"/>
<path d="M51.9999 29.9994C51.9999 29.5372 51.6261 29.1626 51.165 29.1626C50.7039 29.1626 50.3301 29.5372 50.3301 29.9994C50.3301 30.4616 50.7039 30.8362 51.165 30.8362C51.6261 30.8362 51.9999 30.4616 51.9999 29.9994Z" fill="white"/>
</svg>
