<svg width="1236" height="850" viewBox="0 0 1236 850" fill="none" xmlns="http://www.w3.org/2000/svg">
<path d="M611.382 905.446C609.417 901.121 604.3 899.199 599.974 901.163C596.026 902.954 594.116 907.366 595.3 911.411L497.699 955.703L455.643 925.436L650.634 836.949L688.735 864.307C687.929 866.161 687.86 868.322 688.762 870.306C690.452 874.027 694.841 875.675 698.563 873.987C702.284 872.298 703.932 867.91 702.241 864.189C701.242 861.989 699.293 860.541 697.105 860.052L701.619 813.819L848.312 747.25L892.769 779.09L991.391 734.335C993.659 737.889 998.239 739.355 1002.19 737.564C1006.51 735.601 1008.43 730.486 1006.47 726.16C1004.5 721.834 999.387 719.913 995.061 721.876C991.113 723.667 989.203 728.079 990.387 732.125L893.044 776.299L811.365 717.797C812.21 716.185 812.461 714.298 811.97 712.464L897.618 673.597C899.597 676.549 903.46 677.738 906.807 676.222C910.528 674.534 912.175 670.146 910.485 666.425C909.543 664.351 907.754 662.955 905.718 662.387L910.198 615.871L1007.72 571.615C1009.72 575.245 1014.18 576.81 1018.02 575.071C1020.54 573.925 1022.18 571.621 1022.6 569.067C1023.06 567.349 1022.98 565.477 1022.19 563.735C1020.37 559.725 1015.62 557.943 1011.61 559.763C1009.41 560.762 1007.92 562.653 1007.29 564.808C1006.64 566.414 1006.54 568.211 1007.03 569.95L910.394 613.801L915.279 563.116L1008.17 520.964C1010.28 523.165 1013.61 523.938 1016.54 522.604C1020.25 520.92 1021.89 516.543 1020.21 512.833C1019.44 511.133 1018.09 509.899 1016.52 509.186L1021.06 462.836L1116.03 419.795L1106.5 517.765C1105.23 517.684 1103.93 517.864 1102.71 518.424C1098.7 520.245 1096.91 524.988 1098.74 528.998C1100.56 533.009 1105.3 534.79 1109.31 532.97C1113.33 531.15 1115.11 526.407 1113.28 522.396C1112.2 520.012 1110.08 518.443 1107.7 517.922L1117.31 419.215L1167.25 396.586L1166.75 395.48L1117.45 417.821L1133.2 256.019L1133.24 255.67L1090.56 225.094L1137.94 203.592L1137.44 202.487L1089.42 224.278L1005.7 164.284L1049.54 144.392L1049.03 143.287L1004.56 163.468L1004.24 163.614L955.618 185.68L870.325 124.546C871.646 122.366 871.91 119.593 870.775 117.103C870.225 115.892 869.387 114.914 868.4 114.146C866.102 111.952 862.621 111.234 859.558 112.624C855.536 114.449 853.751 119.204 855.577 123.225C856.27 124.751 857.387 125.952 858.727 126.756C860.987 128.447 864.058 128.92 866.805 127.677C867.931 127.166 868.856 126.413 869.6 125.523L954.339 186.26L908.294 207.155L865.226 176.386C865.704 174.75 865.65 172.953 864.89 171.28C863.204 167.57 858.826 165.926 855.116 167.61C852.184 168.94 850.573 171.95 850.843 174.988L666.518 258.628C665.273 257.327 663.612 256.542 661.84 256.387L666.288 210.562L813.45 143.78C814.228 144.941 815.275 145.827 816.471 146.433C818.685 147.876 821.556 148.207 824.131 147.036C828.142 145.215 829.923 140.472 828.101 136.462C827.353 134.814 826.1 133.571 824.615 132.769C822.374 131.225 819.417 130.83 816.764 132.034C812.933 133.773 811.17 138.166 812.591 142.056L666.497 208.353L671.535 156.42L768.742 112.308C771.015 115.847 775.582 117.304 779.524 115.515C783.851 113.551 785.771 108.436 783.806 104.11C781.841 99.7845 776.724 97.8632 772.398 99.8266C768.44 101.623 766.535 106.045 767.732 110.1L669.894 154.499L626.225 123.343L578.111 145.177L583.173 93.947L680.461 49.0841C682.73 52.6338 687.306 54.099 691.254 52.3076C695.581 50.3442 697.501 45.2294 695.536 40.9035C693.571 36.5776 688.454 34.6563 684.128 36.6197C680.18 38.4111 678.269 42.8267 679.457 46.8738L580.895 92.3276L575.557 146.339L527.954 167.941L489.762 140.628C490.757 138.688 490.917 136.343 489.942 134.205C488.252 130.484 483.863 128.836 480.141 130.524C476.799 132.041 475.152 135.731 476.071 139.166L390.423 178.033C388.439 175.097 384.585 173.916 381.248 175.43C377.527 177.119 375.879 181.507 377.57 185.228C378.509 187.296 380.287 188.688 382.312 189.261L377.711 236.124L328.866 258.29L318.567 366.25L172.062 432.733L177.006 380.843L274.533 336.585C276.801 340.139 281.381 341.606 285.329 339.814C289.655 337.851 291.576 332.736 289.611 328.41C287.646 324.084 282.529 322.163 278.203 324.126C274.255 325.918 272.345 330.329 273.529 334.375L174.723 379.213L164.888 482.402C164.34 482.51 163.798 482.665 163.266 482.906C160.529 484.148 158.93 486.847 158.936 489.669L-26.5376 573.834C-28.6593 571.972 -31.7451 571.398 -34.4821 572.64C-38.2034 574.329 -39.851 578.717 -38.1609 582.438C-37.3696 584.18 -35.9783 585.44 -34.3528 586.146L-44.0746 685.754L-53.7844 786.528C-54.6442 786.584 -55.5049 786.772 -56.3365 787.149C-60.0578 788.838 -61.7055 793.226 -60.0154 796.947C-58.3253 800.667 -53.9357 802.316 -50.2144 800.627C-49.3828 800.25 -48.6683 799.719 -48.0595 799.109L116.8 917.034C115.867 918.949 115.734 921.235 116.683 923.324C118.373 927.044 122.762 928.693 126.484 927.004C129.821 925.49 131.468 921.813 130.562 918.387L215.862 879.678C217.841 882.63 221.705 883.818 225.051 882.303C225.967 881.887 226.753 881.305 227.397 880.613L304.012 935.703C303.251 937.534 303.203 939.65 304.087 941.598C305.777 945.318 310.167 946.967 313.888 945.278C317.231 943.761 318.878 940.071 317.959 936.636L403.338 897.891C405.317 900.843 409.18 902.031 412.526 900.516C413.374 900.132 414.095 899.595 414.715 898.968L496.851 958.077L497.422 958.488L596.302 913.616C598.57 917.17 603.15 918.637 607.097 916.845C611.426 914.887 613.347 909.772 611.382 905.446ZM996.061 724.085C999.167 722.676 1002.84 724.057 1004.25 727.162C1005.67 730.267 1004.28 733.943 1001.18 735.352C998.074 736.761 994.396 735.38 992.986 732.276C991.575 729.171 992.956 725.494 996.061 724.085ZM699.067 814.974L694.677 859.926C693.925 860.01 693.168 860.175 692.44 860.509C691.498 860.937 690.692 861.537 690.039 862.252L653.187 835.791L699.067 814.974ZM1112.17 522.899C1113.71 526.299 1112.2 530.319 1108.8 531.866C1105.4 533.409 1101.38 531.897 1099.83 528.498C1098.29 525.098 1099.8 521.074 1103.2 519.531C1106.61 517.985 1110.63 519.495 1112.17 522.899ZM859.359 125.723C858.517 125.071 857.799 124.238 857.328 123.202C855.784 119.802 857.295 115.777 860.695 114.234C863.038 113.172 865.656 113.583 867.577 115.038C868.176 115.616 868.691 116.303 869.053 117.107C870.602 120.517 869.087 124.553 865.676 126.101C863.561 127.057 861.211 126.838 859.359 125.723ZM685.13 38.8338C688.236 37.4246 691.914 38.8056 693.324 41.9105C694.734 45.0155 693.354 48.6919 690.249 50.1011C687.143 51.5104 683.465 50.1294 682.055 47.0244C680.646 43.9156 682.025 40.2431 685.13 38.8338ZM380.26 234.964L384.722 189.542C385.614 189.493 386.507 189.3 387.371 188.908C390.723 187.387 392.368 183.683 391.433 180.241L477.08 141.374C479.059 144.326 482.927 145.516 486.269 144C487.058 143.641 487.73 143.143 488.319 142.574L525.406 169.097L380.26 234.964ZM279.207 326.337C282.312 324.927 285.99 326.308 287.4 329.413C288.811 332.518 287.43 336.195 284.325 337.604C281.219 339.013 277.542 337.632 276.131 334.527C274.717 331.421 276.097 327.744 279.207 326.337ZM773.404 102.042C776.51 100.633 780.187 102.014 781.598 105.119C783.008 108.224 781.628 111.9 778.522 113.31C775.417 114.719 771.739 113.338 770.329 110.233C768.92 107.124 770.299 103.451 773.404 102.042ZM575.422 147.733L570.923 193.252C569.97 193.278 569.004 193.491 568.079 193.908C567.337 194.244 566.698 194.712 566.133 195.242L529.098 168.755L575.422 147.733ZM319.842 365.668L330.006 259.103L377.572 237.517L372.398 290.172L367.124 344.211L319.842 365.668ZM468.724 298.109L473.152 252.73C473.989 252.665 474.834 252.484 475.644 252.116C476.497 251.729 477.229 251.188 477.846 250.556L514.963 277.125L468.724 298.109ZM615.349 231.571L615.033 231.714L517.522 275.964L479.234 248.558C480.146 246.652 480.267 244.389 479.329 242.317C477.638 238.596 473.249 236.948 469.528 238.636C465.806 240.325 464.159 244.713 465.849 248.434C466.81 250.549 468.655 251.962 470.739 252.505L466.176 299.265L369.68 343.054L374.819 290.413L380.129 236.36L526.549 169.915L564.647 197.163C563.596 199.125 563.412 201.522 564.404 203.706C566.094 207.427 570.484 209.075 574.205 207.387C577.926 205.698 579.574 201.31 577.884 197.589C576.975 195.59 575.278 194.214 573.33 193.61L577.98 146.572L626.099 124.736L669.196 155.485L663.953 209.511L615.349 231.571ZM1008.42 565.234C1009.05 563.676 1010.24 562.34 1011.89 561.592C1015.3 560.044 1019.34 561.56 1020.89 564.971C1021.46 566.234 1021.61 567.587 1021.4 568.866C1020.88 570.72 1019.6 572.345 1017.72 573.204C1014.32 574.747 1010.29 573.235 1008.75 569.836C1008.06 568.331 1008.01 566.712 1008.42 565.234ZM809.654 661.161L809.94 661.364L907.641 617.028L903.296 662.115C902.416 662.168 901.528 662.359 900.675 662.746C897.333 664.262 895.684 667.956 896.605 671.388L810.957 710.254C808.978 707.303 805.113 706.108 801.769 707.629C800.869 708.037 800.101 708.605 799.463 709.282L722.907 654.45C723.819 652.545 723.944 650.282 723.002 648.209C721.312 644.488 716.923 642.84 713.201 644.529C709.48 646.217 707.832 650.605 709.522 654.326C710.483 656.442 712.324 657.853 714.413 658.397L709.788 705.483L474.673 812.178L464.331 816.963L421.211 786.494L611.234 700.262C613.213 703.214 617.08 704.404 620.422 702.887C624.144 701.199 625.791 696.811 624.101 693.09C623.171 691.043 621.417 689.655 619.413 689.073L624.033 642.186L721.417 597.796L809.654 661.161ZM621.48 643.344L617.004 688.767C616.097 688.81 615.181 689.007 614.302 689.406C610.959 690.923 609.312 694.612 610.231 698.048L327.308 826.438C326.281 824.905 324.745 823.865 323.035 823.42L327.625 776.692L425.528 732.365L573.711 665.12L621.48 643.344ZM809.211 608.58C810.897 612.29 815.275 613.934 818.986 612.25C821.917 610.919 823.529 607.906 823.254 604.87L912.723 564.269L907.839 614.954L810.849 658.969L679.937 564.948L726.062 544.061L808.894 603.388C808.398 605.048 808.439 606.88 809.211 608.58ZM141.044 810.335L226.897 771.375C228.876 774.326 232.743 775.517 236.086 774C239.807 772.311 241.455 767.923 239.765 764.203C238.784 762.045 236.892 760.619 234.755 760.1L239.311 713.429L286.851 691.855L324.951 719.109C323.916 721.064 323.74 723.451 324.725 725.619C325.715 727.798 327.638 729.236 329.801 729.742L325.213 776.454L129.301 865.158L133.775 819.613C134.845 819.635 135.937 819.447 136.978 818.978C140.322 817.458 141.969 813.768 141.044 810.335ZM598.993 394.328L556.777 413.444C555.92 411.739 554.498 410.489 552.835 409.847L557.441 362.684L604.207 341.496L598.993 394.328ZM606.63 342.729L647.823 372.213L601.661 393.117L606.63 342.729ZM551.646 409.514C550.17 409.213 548.593 409.341 547.12 410.01C546.372 410.349 545.738 410.818 545.168 411.346L508.272 384.955L556.163 363.261L551.646 409.514ZM543.679 413.266C542.812 414.888 542.553 416.798 543.049 418.652L358.7 502.309C356.716 499.373 352.862 498.192 349.525 499.706C345.804 501.395 344.156 505.783 345.847 509.504C346.805 511.614 348.641 513.028 350.725 513.57L346.15 560.47L298.894 581.914L309.179 475.376L456.998 408.182L505.72 386.11L543.679 413.266ZM353.145 513.802C353.989 513.74 354.836 513.556 355.646 513.188C358.999 511.666 360.643 507.962 359.708 504.521L544.053 420.862C545.454 422.946 547.784 424.149 550.22 424.138L545.756 469.892L348.706 559.313L353.145 513.802ZM551.45 424.015C552.053 423.91 552.656 423.756 553.242 423.487C556.673 421.93 558.306 418.082 557.221 414.576L598.858 395.722L593.689 448.143L547.033 469.315L551.45 424.015ZM601.525 394.515L647.882 373.523L638.189 472.203C637.792 472.307 637.393 472.428 637.005 472.601C633.689 474.106 632.044 477.753 632.927 481.158L591.108 500.139L601.525 394.515ZM652.99 371.211L701.761 349.127L694.763 404.091L647.731 424.755L652.99 371.211ZM724.926 543.25L678.802 564.133L635.093 532.744L634.831 532.559L639.354 486.639C640.596 486.761 641.884 486.598 643.105 486.044C643.489 485.87 643.838 485.652 644.177 485.421L724.926 543.25ZM686.298 509.609L731.264 489.204L774.49 520.809L730.035 540.935L686.298 509.609ZM634.553 535.405L676.198 565.312L629.526 586.447L634.553 535.405ZM627.016 587.142L594.403 563.206L627.07 586.603L627.016 587.142ZM632.554 530.948L592.059 502.373L633.92 483.376C634.693 484.549 635.762 485.435 636.983 485.998L632.554 530.948ZM685.159 508.793L647.08 481.518C647.603 479.846 647.566 477.99 646.784 476.269C646.005 474.553 644.637 473.302 643.037 472.596L647.6 426.138L694.591 405.493L687.964 457.541L730.145 488.382L685.159 508.793ZM588.439 501.35L541.836 522.498L546.889 470.71L593.545 449.538L588.439 501.35ZM545.616 471.288L540.562 523.076L447.13 565.475C445.153 562.507 441.281 561.306 437.932 562.829C434.211 564.518 432.563 568.906 434.253 572.626C435.207 574.726 437.025 576.129 439.088 576.681L434.516 623.512L386.982 645.083L348.822 617.79C349.832 615.843 350.003 613.48 349.022 611.326C348.044 609.174 346.153 607.744 344.021 607.223L348.564 560.704L545.616 471.288ZM441.503 576.925C442.359 576.866 443.22 576.679 444.05 576.305C447.387 574.791 449.034 571.114 448.129 567.688L541.503 525.315L583.935 555.709L437.068 622.357L441.503 576.925ZM542.778 524.733L590.776 502.952L632.417 532.337L627.206 585.205L542.778 524.733ZM425.264 672.47L388.119 645.903L434.38 624.91L429.958 670.226C429.149 670.297 428.34 670.474 427.561 670.827C426.667 671.233 425.899 671.801 425.264 672.47ZM236.758 714.587L232.332 759.923C231.535 759.999 230.737 760.171 229.964 760.522C226.621 762.039 224.974 765.729 225.893 769.164L140.04 808.124C138.901 806.426 137.147 805.305 135.212 804.958L139.768 758.601L236.758 714.587ZM332.221 729.892C332.997 729.812 333.773 729.641 334.525 729.303C338.246 727.614 339.894 723.226 338.203 719.506C336.513 715.785 332.124 714.137 328.402 715.826C327.644 716.169 327.003 716.645 326.426 717.183L289.402 690.701L385.566 647.062L423.918 674.496C423.054 676.376 422.955 678.596 423.877 680.627C425.567 684.348 429.957 685.996 433.678 684.307C437.4 682.619 439.047 678.231 437.357 674.51C436.382 672.363 434.503 670.937 432.376 670.413L436.933 623.752L583.948 557.037L626.881 588.549L621.618 641.952L573.208 664.019L425.03 731.262L327.768 775.3L332.221 729.892ZM629.387 587.84L677.337 566.128L720.281 596.972L624.17 640.784L629.387 587.84ZM955.47 187.073L1082.99 278.47L1073.53 377.883C1072.37 377.859 1071.19 378.06 1070.08 378.57C1066.07 380.39 1064.28 385.134 1066.11 389.144C1067.93 393.154 1072.67 394.936 1076.68 393.116C1080.69 391.296 1082.48 386.552 1080.65 382.542C1079.52 380.047 1077.25 378.414 1074.74 377.975L1084.23 278.239L1084.26 277.894L956.748 186.497L1004.41 164.866L1131.95 256.253L1116.16 418.404L1021.19 461.444L1036.27 307.453C1036.7 307.347 1037.14 307.206 1037.57 307.012C1041.28 305.328 1042.92 300.952 1041.24 297.242C1039.55 293.532 1035.17 291.888 1031.46 293.571C1031.03 293.77 1030.63 294.012 1030.25 294.277L909.429 207.97L955.47 187.073ZM1070.57 379.674C1073.97 378.131 1078 379.642 1079.55 383.042C1081.09 386.442 1079.58 390.466 1076.18 392.009C1072.78 393.552 1068.75 392.04 1067.21 388.641C1065.66 385.237 1067.17 381.217 1070.57 379.674ZM904.324 210.287L989.419 271.075L940.026 293.489L940.528 294.595L990.558 271.891L1027.45 298.247C1026.98 299.881 1027.03 301.672 1027.79 303.342C1028.56 305.021 1029.88 306.247 1031.43 306.961L1011.67 508.743C1011.26 508.847 1010.84 508.979 1010.43 509.161C1007.5 510.492 1005.89 513.501 1006.16 516.536L821.246 600.449C819.139 598.248 815.813 597.475 812.88 598.809C812.475 598.993 812.105 599.221 811.752 599.464L731.174 541.751L775.615 521.628L813.496 549.327C812.314 551.463 812.095 554.105 813.18 556.494C815.002 560.504 819.747 562.286 823.758 560.466C827.579 558.732 829.338 554.351 827.925 550.472L919.605 508.868L919.103 507.763L827.423 549.367C825.433 545.748 820.976 544.187 817.151 545.92C815.929 546.474 814.943 547.322 814.171 548.319L732.529 488.627L831.777 443.588L831.275 442.483L731.406 487.804L689.252 456.981L695.88 404.921L743.576 383.965L743.085 382.855L696.058 403.516L709.398 298.737L904.324 210.287ZM817.653 547.025C821.053 545.482 825.079 546.994 826.623 550.393C828.167 553.793 826.656 557.818 823.256 559.361C819.856 560.904 815.83 559.392 814.286 555.992C812.741 552.593 814.251 548.572 817.653 547.025ZM852.849 179.404C854.956 181.605 858.282 182.378 861.215 181.044C861.646 180.848 862.042 180.608 862.415 180.347L903.182 209.465L708.276 297.91L701.937 347.704L653.123 369.808L662.837 270.896C663.315 270.787 663.789 270.629 664.252 270.419C667.184 269.088 668.795 266.079 668.524 263.044L852.849 179.404ZM659.378 256.571C658.963 256.677 658.549 256.802 658.148 256.987C654.437 258.671 652.794 263.047 654.479 266.758C655.225 268.399 656.507 269.601 658.016 270.329L648.272 369.553L606.907 339.944L617.485 232.709L663.735 211.72L659.378 256.571ZM556.129 303.6L518.66 276.781L614.893 233.11L604.525 338.242L569.062 312.861C570.461 310.658 570.766 307.822 569.608 305.278C567.786 301.268 563.04 299.486 559.03 301.306C557.848 301.836 556.889 302.646 556.129 303.6ZM554.892 305.698C554.144 307.63 554.138 309.845 555.062 311.873C556.159 314.288 558.324 315.874 560.74 316.371L556.298 361.866L507.128 384.142L468.735 356.678C469.682 354.76 469.823 352.455 468.869 350.356C467.915 348.256 466.087 346.845 464.018 346.295L468.585 299.502L516.104 277.938L554.892 305.698ZM561.944 316.513C563.178 316.575 564.44 316.389 565.636 315.843C566.31 315.538 566.892 315.127 567.433 314.676L603.49 340.485L557.572 361.288L561.944 316.513ZM818.026 133.595C820.01 132.694 822.189 132.858 823.981 133.806C824.938 134.479 825.747 135.381 826.266 136.523C827.815 139.933 826.3 143.969 822.889 145.517C820.973 146.387 818.868 146.26 817.107 145.402C816.074 144.722 815.204 143.771 814.657 142.566C813.114 139.162 814.625 135.138 818.026 133.595ZM167.334 482.329L171.929 434.123L366.989 345.606L361.918 397.557L270.533 439.027C268.554 436.075 264.687 434.885 261.344 436.402C257.623 438.09 255.975 442.478 257.666 446.199C258.591 448.236 260.333 449.619 262.318 450.207L253.107 543.953C252.266 544.017 251.425 544.198 250.611 544.565C249.763 544.949 249.037 545.489 248.423 546.113L173.309 492.059C173.907 490.328 173.886 488.382 173.067 486.586C171.977 484.186 169.766 482.666 167.334 482.329ZM160.083 541.703L-36.2683 630.81L-31.9632 586.725C-30.7623 586.818 -29.5284 586.648 -28.3546 586.116C-24.6333 584.427 -22.9857 580.039 -24.6758 576.318C-24.7619 576.129 -24.8814 575.97 -24.9809 575.793L159.394 492.124C159.462 492.316 159.503 492.51 159.589 492.699C161.279 496.42 165.668 498.068 169.39 496.38C170.511 495.871 171.415 495.102 172.123 494.193L247.033 548.106C246.115 550.014 245.988 552.284 246.932 554.362C248.622 558.083 253.012 559.731 256.733 558.043C260.454 556.354 262.102 551.966 260.412 548.245C259.451 546.13 257.61 544.718 255.522 544.174L264.722 450.525C265.641 450.486 266.572 450.285 267.463 449.878C270.805 448.361 272.452 444.672 271.533 441.236L364.197 399.185L369.538 344.446L466.034 300.656L461.603 346.052C460.751 346.111 459.892 346.295 459.069 346.672C455.348 348.36 453.7 352.748 455.39 356.469C457.08 360.19 461.47 361.838 465.191 360.149C466.018 359.774 466.72 359.252 467.326 358.65L504.576 385.296L456.494 407.081L308.358 474.422L308.037 474.568L297.617 582.5L248.293 604.883L160.367 541.91L160.083 541.703ZM-47.1481 789.775C-48.1677 788.257 -49.6763 787.228 -51.3694 786.771L-41.6605 685.988L-36.4108 632.201L159.944 543.096L247.008 605.457L50.2476 694.746L45.4272 741.785C44.3531 741.761 43.2608 741.949 42.2186 742.422C38.8763 743.939 37.2289 747.628 38.1483 751.064L-47.1481 789.775ZM46.6376 741.899L51.3889 695.567L346.013 561.868L341.602 607.048C340.802 607.122 339.998 607.297 339.224 607.648C335.503 609.336 333.856 613.724 335.546 617.445C337.236 621.166 341.625 622.814 345.347 621.125C346.12 620.774 346.78 620.284 347.364 619.731L384.429 646.242L288.265 689.881L249.999 662.509C250.937 660.591 251.072 658.302 250.12 656.208C248.43 652.487 244.041 650.839 240.32 652.527C236.598 654.216 234.951 658.604 236.641 662.325C237.592 664.419 239.405 665.825 241.467 666.381L236.898 713.191L138.629 757.785L134.005 804.858C132.952 804.847 131.882 805.035 130.856 805.5C130.024 805.878 129.315 806.406 128.702 807.014L51.9943 752.217C52.847 750.341 52.9438 748.13 52.0235 746.104C50.986 743.82 48.9292 742.331 46.6376 741.899ZM248.595 664.491L285.712 691.039L239.451 712.032L243.884 666.629C244.744 666.572 245.614 666.384 246.446 666.006C247.272 665.631 247.983 665.099 248.595 664.491ZM454.509 924.618L416.103 896.979C416.855 895.419 417.061 893.624 416.595 891.878L600.754 808.307C602.733 811.259 606.597 812.447 609.943 810.932C610.811 810.538 611.556 809.984 612.183 809.338L649.501 836.131L454.509 924.618ZM652.052 834.976L613.552 807.333C614.443 805.437 614.556 803.192 613.624 801.14C611.934 797.419 607.544 795.771 603.823 797.46C600.481 798.976 598.832 802.67 599.753 806.102L415.593 889.673C413.615 886.721 409.749 885.527 406.405 887.048C403.063 888.564 401.414 892.258 402.335 895.69L316.955 934.435C314.977 931.483 311.111 930.289 307.767 931.809C306.788 932.254 305.963 932.891 305.296 933.645L228.719 878.582C229.555 876.714 229.641 874.52 228.728 872.509C227.038 868.789 222.648 867.141 218.927 868.829C215.585 870.346 213.937 874.036 214.857 877.471L129.557 916.18C127.58 913.212 123.708 912.011 120.355 913.533C119.518 913.912 118.803 914.443 118.193 915.056L-46.6638 797.137C-45.895 795.566 -45.681 793.752 -46.1522 791.995L39.1481 753.286C41.1269 756.238 44.9927 757.432 48.3365 755.911C49.2365 755.503 50.0108 754.929 50.6493 754.252L127.288 809.002C126.35 810.919 126.213 813.212 127.165 815.306C128.202 817.59 130.258 819.082 132.551 819.511L127.87 867.144L325.061 777.859L320.605 823.205C319.764 823.27 318.919 823.45 318.107 823.822C314.386 825.51 312.738 829.898 314.428 833.619C316.119 837.34 320.508 838.988 324.229 837.299C327.572 835.782 329.219 832.093 328.3 828.657L419.921 787.079L464.195 818.361L475.171 813.282L709.639 706.881L704.496 759.233L699.192 813.584L652.052 834.976ZM701.755 812.421L706.925 759.464L716.832 658.616C717.673 658.552 718.514 658.37 719.325 658.002C720.178 657.615 720.909 657.074 721.527 656.442L798.122 711.306C797.264 713.183 797.167 715.395 798.09 717.426C799.78 721.147 804.17 722.795 807.891 721.107C808.654 720.76 809.307 720.277 809.887 719.735L847.168 746.436L701.755 812.421ZM597.902 911.564C596.492 908.459 597.872 904.782 600.978 903.373C604.083 901.964 607.761 903.345 609.171 906.45C610.582 909.555 609.201 913.231 606.096 914.64C602.99 916.049 599.313 914.668 597.902 911.564Z" fill="white" fill-opacity="0.04"/>
</svg>
