<svg width="103" height="78" viewBox="0 0 103 78" fill="none" xmlns="http://www.w3.org/2000/svg">
<path fill-rule="evenodd" clip-rule="evenodd" d="M51.1749 0C38.5882 0 28.3008 9.50442 28.3008 21.2697C28.3008 33.035 38.5882 42.5449 51.1749 42.5449C63.7615 42.5449 74.049 33.035 74.049 21.2697C74.049 9.50442 63.7615 0 51.1749 0ZM51.1749 2.48349C62.4391 2.48349 71.4853 10.911 71.4853 21.2697C71.4853 31.6284 62.4391 40.0559 51.1749 40.0559C39.9106 40.0559 30.8644 31.6284 30.8645 21.2697C30.8645 10.911 39.9107 2.48349 51.1749 2.48349Z" fill="white"/>
<path fill-rule="evenodd" clip-rule="evenodd" d="M51.1755 9.49756C42.1444 9.49756 34.5547 15.2922 34.5547 22.765C34.5547 25.9155 35.9127 28.7606 38.1523 31.0034H42.1319C39.1038 29.0359 37.1916 26.1198 37.125 22.9358H65.2274C65.1608 26.1201 63.2477 29.0359 60.219 31.0034H64.2001C66.4399 28.7606 67.7977 25.9156 67.7977 22.765C67.7977 15.2922 60.2065 9.49756 51.1755 9.49756ZM51.1755 11.9872C57.894 11.9872 63.3215 15.5736 64.8123 20.2096H37.5401C39.0306 15.5736 44.4569 11.9872 51.1755 11.9872Z" fill="white"/>
<path d="M27.1797 52.1782V76.8765H33.6426V65.9292H42.1681V76.8765H48.7686V52.1782H42.1681L42.1681 60.9227H33.6426V52.1782H27.1797Z" fill="white"/>
<path d="M9.73679 52.1694L0.548828 76.8755H7.16043L8.81333 71.6627H16.6898L18.4405 76.8755H24.4685L16.1062 52.1782L9.73679 52.1694ZM12.8787 59.4542L15.2174 67.3975H10.197L12.8787 59.4542Z" fill="white"/>
<path d="M54.4746 52.1782V76.8765H60.9375V65.9291H69.4631V76.8765H76.0635V52.1782H69.4631L69.4631 60.9227H60.9375V52.1782H54.4746Z" fill="white"/>
<path d="M87.7329 52.1602L78.5449 76.8667H85.1565L86.8094 71.6538H94.6859L96.4366 76.8667H102.465L94.1023 52.1689L87.7329 52.1602ZM90.8747 59.4451L93.2135 67.3886H88.1931L90.8747 59.4451Z" fill="white"/>
</svg>
