<svg width="200" height="34" viewBox="0 0 200 34" fill="none" xmlns="http://www.w3.org/2000/svg">
<path fill-rule="evenodd" clip-rule="evenodd" d="M34.3932 34H190.31V25.0729H34.3932V34ZM0 34H32.2107V1.85864H0V34ZM16.143 27.1803C11.0207 27.1803 6.85325 23.0218 6.85325 17.9105C6.85325 12.7993 11.0207 8.64081 16.143 8.64081C21.2653 8.64081 25.4327 12.7993 25.4327 17.9105C25.4327 23.0218 21.2653 27.1803 16.143 27.1803ZM28.0997 19.4641C27.3377 25.4343 22.206 29.9354 16.1618 29.9354C9.52963 29.9354 4.12982 24.5472 4.12982 17.9293C4.12982 11.3114 9.52963 5.92325 16.1618 5.92325C22.0931 5.92325 27.2107 10.3352 28.0668 16.1833L29.9765 15.9064C28.9887 9.11485 23.048 3.9942 16.1618 3.9942C8.4619 3.9942 2.19661 10.246 2.19661 17.9293C2.19661 25.6126 8.4619 31.8644 16.1618 31.8644C23.175 31.8644 29.1298 26.6358 30.0141 19.7082L28.0997 19.4641ZM21.1524 18.7225V16.7935H18.6124V11.931C19.3415 12.2314 20.0141 12.6632 20.5927 13.2076L21.9191 11.8043C20.9501 10.8937 19.7883 10.2272 18.5278 9.85643C17.6152 9.57482 16.6839 9.53258 16.6839 9.53258V26.3683C17.3659 26.3683 18.6171 25.9881 18.6171 25.9881V18.7225H21.1524ZM22.6246 17.9105C22.6246 19.4266 22.0884 20.905 21.1148 22.0643L22.5964 23.3034C23.8617 21.7968 24.5579 19.8818 24.5579 17.9105C24.5579 16.3898 24.1486 14.902 23.3678 13.6019L21.7121 14.5922C22.3095 15.5919 22.6246 16.7419 22.6246 17.9105ZM13.4102 19.802L10.4516 11.7432C10.4516 11.7432 9.41674 12.7664 8.92286 13.6066C8.14205 14.9067 7.73283 16.3851 7.73283 17.9152C7.73283 19.9241 8.45249 21.8672 9.76482 23.3879L11.2277 22.13C10.2164 20.9613 9.66134 19.4641 9.66134 17.9152C9.66134 17.2535 9.76011 16.6104 9.95296 15.9909L13.7394 26.021C13.7394 26.021 14.6049 26.3167 15.3387 26.3683V9.53727C15.3387 9.53727 14.0263 9.76256 13.4055 10.0254V19.802H13.4102ZM16.143 6.71645C9.95767 6.71645 4.92474 11.7385 4.92474 17.9105C4.92474 24.0826 9.95767 29.1093 16.143 29.1093C22.3283 29.1093 27.3612 24.0872 27.3612 17.9105C27.3659 11.7385 22.333 6.71645 16.143 6.71645ZM196.199 4.31806H196.609C197.192 4.31806 197.3 3.9942 197.3 3.76891C197.3 3.53424 197.197 3.21038 196.609 3.21038H196.199V4.31806ZM195.499 2.5439H196.595C197.855 2.5439 198.006 3.35588 198.006 3.72198C198.006 4.30867 197.601 4.85781 196.99 4.89067L198.006 6.27057H197.145L196.209 4.89067H196.199V6.27057H195.499V2.5439ZM199.37 4.38377C199.37 2.87245 198.137 1.64743 196.627 1.64743C195.103 1.64743 193.881 2.87714 193.881 4.38377C193.881 5.89509 195.108 7.12479 196.627 7.12479C198.123 7.12949 199.37 5.91386 199.37 4.38377ZM193.25 4.38377C193.25 2.52982 194.755 1.0185 196.627 1.0185C198.481 1.0185 200 2.52982 200 4.38377C200 6.25179 198.485 7.75373 196.627 7.75373C194.76 7.75842 193.25 6.2471 193.25 4.38377ZM185.668 3.52015H180.978V1.66151H192.418V3.52015H187.728V22.1676H185.673V3.52015H185.668ZM164.718 1.66151H166.773V10.6966H177.521V1.66151H179.577V22.1676H177.521V12.5505H166.773V22.1676H164.718V1.66151ZM151.406 1.66151H162.681V3.52015H153.462V10.9172H162.375V12.7758H153.462V20.3136H162.681V22.1723H151.406V1.66151ZM145.913 20.3136L139.36 4.29459L132.808 20.3089H145.913V20.3136ZM148.133 20.3136H149.991V22.1723H128.721V20.3136H130.579L138.241 1.66621H140.461L148.133 20.3136ZM112.94 1.66151V19.2576L125.16 1.66151H127.328V22.1676H125.273V4.57151L113.057 22.1676H110.889V1.66151H112.94ZM99.6096 18.455C104.022 18.4832 106.745 15.2962 106.745 11.4428C106.745 7.58945 104.022 4.40254 99.6096 4.4307V18.455ZM97.5541 4.43539C93.1373 4.40723 90.4186 7.59415 90.4186 11.4475C90.4186 15.2962 93.1373 18.4832 97.5541 18.4597V4.43539ZM97.5541 20.3136C92.2531 20.2855 88.3631 16.5447 88.3631 11.4475C88.3631 6.35036 92.2483 2.60961 97.5541 2.58145V0H99.6096V2.57675C104.911 2.60491 108.801 6.34566 108.801 11.4428C108.801 16.54 104.911 20.2808 99.6096 20.3089V23.1908H97.5541V20.3136ZM71.4393 1.66151H73.4948V10.6966H84.2427V1.66151H86.2982V22.1676H84.2427V12.5505H73.4948V22.1676H71.4393V1.66151ZM67.1637 11.8043C67.1637 6.70707 63.302 3.15875 58.3631 3.15875C53.3396 3.15875 49.5061 6.87134 49.5061 11.9685C49.5061 17.122 53.4243 20.6703 58.3631 20.6703C63.3584 20.6703 67.1637 16.9296 67.1637 11.8043ZM69.2192 11.8043C69.2192 17.9528 64.445 22.529 58.3349 22.529C52.2813 22.529 47.4506 18.1218 47.4506 11.9732C47.4506 5.81999 52.2248 1.3048 58.3349 1.3048C64.4732 1.3048 69.2192 5.70734 69.2192 11.8043ZM45.6021 1.66151H48.0433L40.1317 11.4428L48.3772 22.1676H45.8231L37.6858 11.6681L45.6021 1.66151ZM36.27 1.66151V22.1676H34.2145V1.66151H36.27ZM41.2418 32.0334H37.5353V27.0395H38.0386V31.5687H40.3481V27.0395H40.8514V31.5687H41.7074V32.7844H41.2418V32.0334ZM44.2803 27.0395H47.1496V27.5323H44.7789V29.0953H47.1261V29.5834H44.7789V31.5406H47.1261V32.0334H44.2756V27.0395H44.2803ZM49.8119 27.0395H50.3151V29.1328H52.8598V27.0395H53.3631V32.0334H52.8598V29.6209H50.3151V32.0334H49.8119V27.0395ZM55.889 27.5229V27.0395H58.6359V27.5229H57.5212V32.0334H57.0132V27.5229H55.889ZM61.1524 27.0395H62.1496C62.7187 27.0395 63.1044 27.0629 63.3067 27.1146C63.5936 27.185 63.8241 27.3305 64.0075 27.5464C64.191 27.767 64.2803 28.0392 64.2803 28.3724C64.2803 28.7057 64.191 28.9779 64.0122 29.1938C63.8335 29.4097 63.5936 29.5552 63.2785 29.6303C63.0527 29.6866 62.6293 29.7101 62.0085 29.7101H61.651V32.0334H61.1524V27.0395ZM61.651 27.5229V29.222L62.4976 29.2314C62.841 29.2314 63.0903 29.1985 63.2502 29.1375C63.4102 29.0765 63.5325 28.9732 63.6218 28.8371C63.7159 28.6963 63.7582 28.5414 63.7582 28.3724C63.7582 28.2035 63.7112 28.0533 63.6218 27.9125C63.5325 27.7717 63.4102 27.6731 63.2643 27.6168C63.1138 27.5558 62.8739 27.5276 62.5353 27.5276H61.651V27.5229ZM72.9727 27.5229C73.3255 27.1146 73.7582 26.9128 74.2756 26.9128C74.6849 26.9128 75.0282 27.0301 75.2916 27.2695C75.5597 27.5041 75.6914 27.8139 75.6914 28.1894C75.6914 28.7198 75.4421 29.1046 74.9389 29.3346C75.5974 29.5364 75.9266 29.9823 75.9266 30.6582C75.9266 31.1088 75.7808 31.4749 75.4845 31.7518C75.1881 32.0287 74.7883 32.1648 74.2709 32.1648C73.9134 32.1648 73.603 32.0897 73.3349 31.9442C73.0715 31.794 72.8222 31.5359 72.587 31.1651L72.9727 30.9398C73.2032 31.2777 73.4196 31.4983 73.6218 31.5922C73.8241 31.6861 74.031 31.7377 74.2521 31.7377C74.5673 31.7377 74.8401 31.6485 75.0611 31.4608C75.2822 31.2777 75.3951 31.0055 75.3951 30.6535C75.3951 30.4658 75.3575 30.3015 75.2822 30.1607C75.207 30.0199 75.0988 29.9072 74.9624 29.8228C74.826 29.7383 74.6943 29.6819 74.5673 29.6585C74.445 29.635 74.238 29.6256 73.9511 29.6256H73.8664V29.1891H74.031C74.7742 29.1891 75.1458 28.8887 75.1458 28.288C75.1458 28.011 75.0611 27.7858 74.8918 27.6262C74.7225 27.4619 74.5061 27.3774 74.2521 27.3774C73.9182 27.3774 73.5983 27.5276 73.3067 27.8327L72.9727 27.5229ZM80.7714 27.0395L83.1044 32.0334H82.5682L81.7827 30.3907H79.6237L78.8429 32.0334H78.2832L80.6491 27.0395H80.7714ZM80.7103 28.1002L79.8495 29.9119H81.5616L80.7103 28.1002ZM91.4958 31.5641H92.3518V32.7844H91.8815V32.0381H85.6773V27.0395H86.1806V31.5641H88.3161V27.0395H88.8194V31.5641H90.9925V27.0395H91.4958V31.5641ZM98.8523 32.0334H98.3302V28.2082L95.0329 32.0334H94.92V27.0395H95.4186V30.9351L98.7347 27.0395H98.8476V32.0334H98.8523ZM101.383 27.5229V27.0395H104.13V27.5229H103.015V32.0334H102.507V27.5229H101.383ZM106.646 27.0395H107.145V29.1844H107.507C108.161 29.1844 108.631 29.2173 108.918 29.2783C109.205 29.344 109.436 29.4848 109.61 29.7148C109.784 29.9401 109.873 30.2358 109.873 30.5972C109.873 30.9492 109.788 31.2449 109.619 31.4749C109.45 31.7049 109.233 31.8597 108.97 31.9301C108.706 32.0006 108.264 32.0381 107.643 32.0381H106.646V27.0395ZM107.15 31.5547H107.686C108.25 31.5547 108.617 31.5265 108.786 31.4749C108.956 31.4232 109.092 31.3247 109.196 31.1792C109.294 31.0337 109.346 30.8506 109.346 30.6207C109.346 30.3719 109.28 30.1701 109.153 30.0152C109.026 29.8603 108.866 29.7617 108.669 29.7289C108.471 29.696 108.104 29.6772 107.573 29.6772H107.15V31.5547ZM110.466 27.0395H110.964V32.0334H110.466V27.0395ZM123.706 32.0334H123.184V28.2082L119.887 32.0334H119.774V27.0395H120.273V30.9351L123.589 27.0395H123.706V32.0334ZM126.726 27.0395H127.23V29.1328H129.774V27.0395H130.278V32.0334H129.774V29.6209H127.23V32.0334H126.726V27.0395ZM135.47 27.0395H135.969V27.6778H136.355C137.107 27.6778 137.629 27.8233 137.926 28.119C138.217 28.41 138.363 28.762 138.363 29.1703C138.363 29.5458 138.236 29.8744 137.977 30.1654C137.719 30.4564 137.23 30.6019 136.515 30.6019H135.974V32.0287H135.475V30.6019H134.939C134.558 30.6019 134.243 30.5643 133.993 30.4892C133.744 30.4141 133.528 30.2592 133.354 30.0152C133.175 29.7758 133.086 29.4895 133.086 29.1657C133.086 28.7573 133.231 28.4053 133.523 28.1143C133.815 27.8186 134.337 27.6731 135.099 27.6731H135.48V27.0395H135.47ZM135.969 28.1612V30.1231H136.496L136.764 30.1278C137.112 30.1278 137.38 30.034 137.563 29.8556C137.747 29.6726 137.841 29.4426 137.841 29.1657C137.841 28.8606 137.733 28.6165 137.516 28.4335C137.3 28.2504 136.971 28.1612 136.529 28.1612H135.969ZM135.47 28.1612H134.911C134.501 28.1612 134.177 28.2457 133.946 28.4194C133.711 28.593 133.598 28.8418 133.598 29.161C133.598 29.4379 133.688 29.6679 133.876 29.8509C134.059 30.034 134.332 30.1278 134.699 30.1278L134.948 30.1231H135.47V28.1612ZM143.556 26.9128C144.313 26.9128 144.948 27.1662 145.456 27.6684C145.964 28.1753 146.223 28.7949 146.223 29.5317C146.223 30.2639 145.969 30.8835 145.461 31.3904C144.953 31.902 144.332 32.1554 143.598 32.1554C142.855 32.1554 142.23 31.902 141.722 31.3951C141.214 30.8882 140.955 30.2733 140.955 29.5552C140.955 29.0765 141.072 28.6306 141.303 28.2223C141.533 27.8139 141.853 27.4901 142.253 27.2601C142.658 27.0301 143.09 26.9128 143.556 26.9128ZM143.584 27.4056C143.213 27.4056 142.865 27.5041 142.531 27.6919C142.201 27.8843 141.943 28.1425 141.754 28.471C141.571 28.7949 141.477 29.161 141.477 29.5599C141.477 30.1513 141.684 30.6535 142.093 31.0618C142.502 31.4702 143.001 31.672 143.584 31.672C143.97 31.672 144.332 31.5781 144.661 31.3904C144.991 31.2026 145.249 30.9445 145.433 30.6207C145.616 30.2968 145.71 29.9307 145.71 29.5364C145.71 29.1422 145.616 28.7808 145.433 28.4616C145.249 28.1425 144.986 27.8843 144.652 27.6919C144.313 27.4994 143.96 27.4056 143.584 27.4056ZM149.031 27.0395H150.028C150.597 27.0395 150.983 27.0629 151.185 27.1146C151.472 27.185 151.703 27.3305 151.886 27.5464C152.07 27.767 152.159 28.0392 152.159 28.3724C152.159 28.7057 152.07 28.9779 151.891 29.1938C151.712 29.4097 151.472 29.5552 151.157 29.6303C150.931 29.6866 150.508 29.7101 149.887 29.7101H149.53V32.0334H149.031V27.0395ZM149.53 27.5229V29.222L150.376 29.2314C150.72 29.2314 150.969 29.1985 151.129 29.1375C151.289 29.0765 151.411 28.9732 151.505 28.8371C151.599 28.6963 151.642 28.5414 151.642 28.3724C151.642 28.2035 151.595 28.0533 151.505 27.9125C151.416 27.7717 151.294 27.6731 151.148 27.6168C150.997 27.5558 150.757 27.5276 150.419 27.5276H149.53V27.5229ZM154.737 32.0334L155.447 27.0395H155.532L157.568 31.1369L159.581 27.0395H159.661L160.381 32.0334H159.887L159.398 28.4616L157.629 32.0334H157.502L155.71 28.4335L155.221 32.0334H154.737ZM165.216 27.0395L167.549 32.0334H167.013L166.228 30.3907H164.069L163.288 32.0334H162.728L165.099 27.0395H165.216ZM165.155 28.1002L164.294 29.9119H166.007L165.155 28.1002ZM173.838 32.0334H170.127V27.0395H170.63V31.5687H172.94V27.0395H173.443V31.5687H174.299V32.7844H173.833V32.0334H173.838ZM180.804 32.0334H180.282V28.2082L176.985 32.0334H176.872V27.0395H177.371V30.9351L180.687 27.0395H180.8V32.0334H180.804ZM187.766 32.0334H187.244V28.2082L183.946 32.0334H183.833V27.0395H184.332V30.9351L187.648 27.0395H187.761V32.0334H187.766Z" fill="white"/>
</svg>
