<svg width="120" height="80" viewBox="0 0 120 80" fill="none" xmlns="http://www.w3.org/2000/svg">
<path d="M114.863 0.818359H17.2715V79.2099H114.863V0.818359Z" fill="white"/>
<path d="M0 0V80H120V0H0ZM17.6105 78.6737V1.07231H114.412V78.6737H17.6105Z" fill="#0F204F"/>
<path d="M2.42773 71.1395C2.42773 65.7215 6.12482 64.3953 9.00346 64.3953C11.5999 64.3953 15.4663 65.524 15.4663 71.1395V78.5046H2.42773V71.1395ZM12.1926 73.3688V72.3247C12.1926 71.1678 11.8539 69.785 8.9188 69.785C5.89904 69.785 5.50393 71.0831 5.50393 72.3247V73.3688H12.1926Z" fill="white"/>
<path d="M5.70146 58.3287H7.931V58.2441C6.68923 57.8489 5.50391 56.833 5.50391 55.2243C5.50391 54.9703 5.53213 54.6881 5.58857 54.4341H9.51143C9.42677 54.7445 9.37032 55.0832 9.37032 55.4219C9.37032 56.8612 10.2734 58.0183 11.9667 58.0183H15.4945V62.8442H5.72968V58.3287H5.70146Z" fill="white"/>
<path d="M11.8828 54.8574V50.6802H15.467V54.8574H11.8828Z" fill="white"/>
<path d="M10.7543 44.2468V44.1622L2.45703 42.0458V37.1075L10.7543 35.0475V34.9629L2.45703 33.3262V28.7266L15.4392 31.9435V37.4744L6.94433 39.7036V39.7883L15.4392 41.9047V47.5484L2.45703 50.6807V45.8553L10.7543 44.2468Z" fill="white"/>
<path d="M2.42773 16.3667H5.50393V22.9415H7.39481V16.6489H10.3581V22.9415H12.3901V16.2256H15.4663V28.0771H2.42773V16.3667Z" fill="white"/>
<path d="M2.42773 6.57527C2.42773 2.37074 4.60083 1.60884 5.81437 1.60884C7.31014 1.60884 8.52369 2.65292 8.80591 4.34602H8.89058C9.08813 2.99154 9.93479 1.32666 11.995 1.32666C15.297 1.32666 15.4663 5.16435 15.4663 6.88567V14.7021H2.42773V6.57527ZM7.59236 9.76394V8.55055C7.59236 6.7728 6.68926 6.60348 6.32237 6.60348C5.78615 6.60348 5.0806 6.99854 5.0806 8.43767V9.76394H7.59236ZM12.8134 9.76394V8.46589C12.8134 6.82923 11.9386 6.54705 11.487 6.54705C10.1606 6.54705 10.1606 8.12727 10.1606 8.57877V9.76394H12.8134Z" fill="white"/>
<path d="M45.5801 35.9508L66.0411 24.2965L86.4738 35.979C86.4738 35.979 89.2113 46.0531 78.3741 54.4905C67.5933 62.8997 64.5453 62.815 53.6516 54.4905C42.7015 46.1096 45.5801 35.9508 45.5801 35.9508Z" fill="#0F204F"/>
<path d="M65.9271 19.8101L80.0381 27.7114C80.3768 26.7519 80.5743 25.7643 80.5743 24.7202C80.5743 18.5121 74.0551 13.4891 66.0118 13.4891C57.9685 13.4891 51.4492 18.5121 51.4492 24.7202C51.4492 25.736 51.6185 26.7237 51.9572 27.6549L65.9271 19.8101Z" fill="#0F204F"/>
<path d="M90.5379 42.6672L101.827 49.4962L80.6602 75.2034L90.5379 42.6672Z" fill="#0F204F"/>
<path d="M91.1294 36.1204L89.8594 30.4766L111.59 36.9106L98.1002 44.1348L99.9629 38.2651L91.1294 36.1204Z" fill="#0F204F"/>
<path d="M88.5896 26.8365L85.7109 22.8576L104.987 16.6777L100.189 31.8876L98.2133 24.8894L88.5896 26.8365Z" fill="#0F204F"/>
<path d="M83.284 19.7539L79.2482 15.4648L84.554 10.0187L78.7402 6.40674H94.1494L83.284 19.7539Z" fill="#0F204F"/>
<path d="M41.4587 42.6667L30.1699 49.4957L51.3082 75.2029L41.4587 42.6667Z" fill="#0F204F"/>
<path d="M40.8661 36.1203L42.1361 30.4764L20.377 36.9105L33.8671 44.1346L32.0044 38.265L40.8661 36.1203Z" fill="#0F204F"/>
<path d="M43.4057 26.8365L46.2561 22.8576L26.9805 16.6777L31.7782 31.8876L33.782 24.8894L43.4057 26.8365Z" fill="#0F204F"/>
<path d="M48.7121 19.7539L52.7478 15.4648L47.4421 10.0187L53.2558 6.40674H37.8184L48.7121 19.7539Z" fill="#0F204F"/>
<path d="M60.0003 50.6532H72.0229L72.9542 47.8313H59.069L60.0003 50.6532ZM63.1612 60.2476C65.1085 60.8684 66.9147 60.8684 68.862 60.2758L69.5112 58.3005H62.5121L63.1612 60.2476ZM61.7219 55.8737H70.3014L71.2327 53.0518H60.7906L61.7219 55.8737ZM58.2788 45.4327H73.7445L74.6758 42.6108H57.3475L58.2788 45.4327ZM73.434 28.5296L71.7689 35.9794H71.6842L69.0032 28.4731H63.1894L60.6777 35.9794H60.593L58.6175 28.5296L53.6504 31.3797L56.5573 40.2404H63.4152L65.9834 32.5649H66.0681L68.6645 40.2404H75.466L78.3729 31.3797L73.434 28.5296Z" fill="white"/>
</svg>
